<svg width="858" height="688" xmlns="http://www.w3.org/2000/svg" xmlns:xlink="http://www.w3.org/1999/xlink" xml:space="preserve" overflow="hidden"><g transform="matrix(1 0 0 1 0 27)"><path d="M560.694 159 585 159 585 163.095 580.626 163.095C579.104 163.095 578.115 163.095 577.584 163.171L572.485 183.723 580.701 183.723 585 183.416 585 187.811 581.691 187.123 571.65 187.123 566.551 207.753C567.616 207.828 569.746 207.905 572.941 207.905 573.322 207.905 573.626 208.061 573.931 208.369 574.16 208.679 574.311 209.064 574.311 209.451 574.311 210.918 573.779 211.769 572.714 212L548.37 212C547.989 212 547.685 211.845 547.456 211.46 547.151 211.151 547 210.765 547 210.455 547 208.987 547.533 208.137 548.674 207.905 552.325 207.905 554.76 207.828 555.824 207.674L566.778 163.25C565.791 163.171 563.661 163.095 560.466 163.095 560.085 163.095 559.704 162.94 559.476 162.632 559.172 162.245 559.02 161.936 559.02 161.549 559.02 160.082 559.554 159.231 560.694 159Z" fill="#221F20" fill-rule="evenodd"/><path d="M585 159 588.38 159C591.564 159 594.825 159.308 598.087 159.922 601.272 160.613 604.069 161.765 606.399 163.532 608.651 165.299 609.816 167.756 609.816 170.829 609.816 172.826 609.351 174.668 608.339 176.283 607.33 177.896 606.089 179.355 604.458 180.584 602.827 181.813 601.117 182.812 599.252 183.656 597.389 184.426 595.447 185.117 593.428 185.654 595.291 186.421 596.769 187.573 597.855 189.035 599.02 190.57 599.565 192.26 599.565 194.18L599.565 195.332 598.786 202.015C598.71 203.243 598.632 204.166 598.632 204.703 598.632 206.239 598.866 207.47 599.408 208.313 599.875 209.234 600.883 209.696 602.204 209.696 603.758 209.696 605.078 209.082 606.322 207.852 607.564 206.547 608.419 205.165 608.805 203.628 608.884 203.321 609.039 203.013 609.272 202.782 609.505 202.476 609.816 202.4 610.204 202.4L611.602 202.4C611.991 202.4 612.301 202.551 612.534 202.861 612.846 203.167 613 203.552 613 203.934L613 204.319C612.612 205.856 611.835 207.314 610.749 208.621 609.738 209.926 608.419 211.002 606.864 211.848 605.389 212.615 603.836 213 602.204 213 591.564 213 586.203 210.08 586.203 204.319 586.203 203.552 586.283 202.629 586.516 201.555L588.223 194.795C588.38 194.256 588.457 193.566 588.457 192.953 588.457 191.644 588.147 190.57 587.524 189.648 586.903 188.804 586.051 188.112 585.038 187.651L585 187.644 585 183.274 587.216 183.119C589.078 182.812 590.864 182.121 592.574 181.044 594.126 180.123 595.37 178.356 596.379 175.976 597.311 173.516 597.777 171.213 597.777 168.987 597.777 167.218 597.155 165.912 595.914 164.991 594.591 164.147 593.194 163.608 591.486 163.378 589.855 163.147 587.991 163.072 585.817 163.072L585 163.072 585 159Z" fill="#221F20" fill-rule="evenodd"/><path d="M631.366 186 631.765 186C632.05 186 632.277 186.112 632.448 186.339 632.677 186.508 632.791 186.734 632.791 187.018L632.791 208.828C633.588 208.885 634.558 208.94 635.756 208.94 636.953 208.997 638.377 208.997 639.918 208.997 640.201 208.997 640.486 209.111 640.658 209.339 640.885 209.508 641 209.735 641 210.018L641 210.925C641 211.207 640.885 211.49 640.658 211.716 640.429 211.887 640.201 212 639.86 212L618.767 212C618.484 212 618.197 211.887 617.97 211.716 617.741 211.49 617.626 211.207 617.626 210.925L617.626 210.018C617.626 209.792 617.741 209.566 617.97 209.339 618.197 209.111 618.426 208.997 618.654 208.997 621.846 208.997 624.239 208.94 625.779 208.828L625.779 190.984C623.898 191.324 621.39 191.493 618.197 191.493 617.855 191.493 617.626 191.38 617.399 191.211 617.17 190.984 617 190.758 617 190.474L617 189.568C617 189.283 617.115 189.058 617.344 188.831 617.514 188.661 617.8 188.547 618.027 188.492 620.763 188.492 623.099 188.32 625.209 188.039 627.261 187.755 629.143 187.132 630.852 186.17 631.081 186.055 631.252 186 631.366 186Z" fill="#221F20" fill-rule="evenodd"/><path d="M485 123 533 123 533 259 485 259 485 123Z" stroke="#221F20" stroke-width="6.49462" stroke-linecap="round" stroke-linejoin="round" stroke-miterlimit="10" fill="none" fill-rule="evenodd"/><path d="M508 26.0001 509 123" stroke="#221F20" stroke-width="6.49606" stroke-miterlimit="2.91155" fill="none" fill-rule="evenodd"/><path d="M509 259 510 345" stroke="#221F20" stroke-width="6.49606" stroke-miterlimit="2.91155" fill="none" fill-rule="evenodd"/><path d="M508 26.0001 69.0001 26.0001" stroke="#221F20" stroke-width="6.49606" stroke-linecap="round" stroke-miterlimit="2.91155" fill="none" fill-rule="evenodd"/><path d="M777 70.0001 825 70.0001 825 205 777 205 777 70.0001Z" stroke="#221F20" stroke-width="6.49462" stroke-linecap="round" stroke-linejoin="round" stroke-miterlimit="10" fill="none" fill-rule="evenodd"/><path d="M786.5 420.5 815.5 420.5" stroke="#221F20" stroke-width="3.24803" stroke-linecap="round" stroke-miterlimit="2.91155" fill="none" fill-rule="evenodd"/><path d="M777.5 422.5C777.571 420.696 778.161 392.613 778.161 392.613 778.484 362.5 825.5 363.134 824.567 392.162 824.291 400.725 824.784 413.05 824.784 422.5" stroke="#221F20" stroke-width="3.24803" stroke-linecap="round" stroke-miterlimit="2.91155" fill="none" fill-rule="evenodd"/><path d="M800.999 342C830.824 342 855 365.953 855 395.499 855 425.046 830.824 449 800.999 449 771.176 449 747 425.046 747 395.499 747 365.953 771.176 342 800.999 342Z" stroke="#221F20" stroke-width="6.49606" stroke-miterlimit="2.91155" fill="none" fill-rule="evenodd"/><path d="M720.5 466.5 744.5 466.5" stroke="#221F20" stroke-width="2.59843" stroke-linecap="round" stroke-miterlimit="2.91155" fill="none" fill-rule="evenodd"/><path d="M735.526 310C735.933 310 736.292 310.153 736.544 310.408 736.85 310.713 737.004 311.07 737.055 311.479L737.055 327.947 753.573 327.947C753.98 327.997 754.284 328.148 754.59 328.456 754.847 328.71 755 329.066 755 329.474 755 329.882 754.847 330.241 754.59 330.547 754.284 330.801 753.98 331.005 753.573 331.056L737.055 331.056 737.055 347.522C737.004 347.93 736.85 348.286 736.544 348.594 736.237 348.849 735.883 349 735.526 349 735.119 349 734.761 348.849 734.457 348.594 734.148 348.286 733.997 347.93 733.945 347.522L733.945 331.056 717.48 331.056C717.071 331.005 716.714 330.801 716.409 330.547 716.154 330.241 716 329.882 716 329.474 716 329.066 716.154 328.71 716.409 328.456 716.714 328.148 717.071 327.997 717.48 327.947L733.945 327.947 733.945 311.479C733.997 311.07 734.148 310.713 734.457 310.408 734.71 310.153 735.067 310 735.526 310Z" fill="#221F20" fill-rule="evenodd"/><path d="M649.068 349C651.011 349 652.647 349.406 653.875 350.222 655.153 351.038 656.021 352.158 656.535 353.635 658.68 350.526 661.392 349 664.767 349 667.425 349 669.471 349.713 670.85 351.19 672.283 352.617 673 354.858 673 357.864L673 376 668.499 376 668.499 359.343C668.499 357.558 668.344 356.285 668.039 355.469 667.784 354.706 667.221 354.093 666.454 353.585 665.686 353.126 664.818 352.871 663.743 352.871 661.903 352.871 660.317 353.482 659.091 354.706 657.863 355.979 657.249 357.915 657.249 360.666L657.249 376 652.748 376 652.748 358.831C652.748 356.845 652.39 355.368 651.675 354.349 650.909 353.38 649.731 352.871 648.043 352.871 646.817 352.871 645.642 353.177 644.567 353.839 643.493 354.501 642.725 355.469 642.215 356.793 641.754 358.067 641.499 359.901 641.499 362.296L641.499 376 637 376 637 349.56 641.038 349.56 641.038 353.278C641.857 352.006 642.982 350.935 644.364 350.171 645.743 349.406 647.329 349 649.068 349Z" fill="#ED1B23" fill-rule="evenodd"/><path d="M690.21 339 693 339 693 343.429 692.792 342.823C692.276 345.251 691.605 347.578 690.728 349.955L686.696 360.808 693 360.808 693 364.786 685.249 364.786 681.219 376 676 376 690.21 339Z" fill="#ED1B23" fill-rule="evenodd"/><path d="M621.978 339 625 339 625 376 620.333 376 620.333 347.183C619.22 348.211 617.733 349.241 615.93 350.269 614.075 351.3 612.43 352.123 611 352.637L611 348.263C613.597 347.079 615.88 345.638 617.841 343.939 619.805 342.241 621.183 340.595 621.978 339Z" fill="#ED1B23" fill-rule="evenodd"/><path d="M693 339 695.487 339 710 376 704.631 376 700.506 364.786 693 364.786 693 360.808 699.065 360.808 695.336 350.523 693 343.429 693 339Z" fill="#ED1B23" fill-rule="evenodd"/><path d="M605 401 605 404.825 604.948 404.795C602.888 404.795 601.189 405.679 599.953 407.445 598.405 409.733 597.634 413.892 597.634 420.027 597.634 426.161 598.357 430.216 599.746 432.242 601.189 434.271 602.939 435.257 605 435.257L605 439C601.446 439 598.664 437.7 596.657 435.153 594.235 432.034 593 426.991 593 420.027 593 415.607 593.464 412.073 594.338 409.37 595.264 406.666 596.553 404.587 598.357 403.182 600.108 401.727 602.321 401 605 401Z" fill="#ED1B23" fill-rule="evenodd"/><path d="M623.284 433 628 433 628 438.371C628 440.36 627.716 441.97 627.057 443.153 626.443 444.387 625.499 445.356 624.131 446L623 443.958C623.894 443.53 624.509 442.886 624.932 442.025 625.357 441.164 625.593 439.983 625.64 438.371L623.284 438.371 623.284 433Z" fill="#ED1B23" fill-rule="evenodd"/><path d="M644 411 644 417.346 638.372 425.763 644 425.763 644 430 634 430 634 425.763 644 411Z" fill="#ED1B23" fill-rule="evenodd"/><path d="M605 401C606.792 401 608.4 401.415 609.769 402.195 611.137 403.027 612.27 404.17 613.168 405.679 614.065 407.185 614.726 409.057 615.245 411.189 615.764 413.371 616 416.336 616 420.027 616 424.392 615.575 427.928 614.773 430.58 613.971 433.283 612.743 435.36 611.137 436.816 609.532 438.272 607.455 439 605 439L605 435.257C606.889 435.257 608.493 434.217 609.816 432.242 611.09 430.216 611.752 426.108 611.752 420.027 611.752 413.892 611.09 409.838 609.816 407.81L605 404.825 605 401Z" fill="#ED1B23" fill-rule="evenodd"/><path d="M665 402 669.298 402 669.298 422.515 679.456 411.904 685.024 411.904 675.354 421.609 686 438 680.724 438 672.277 424.676 669.298 427.642 669.298 438 665 438 665 402Z" fill="#ED1B23" fill-rule="evenodd"/><path d="M650.465 402 654.102 402 654.102 425.329 659 425.329 659 429.403 654.102 429.403 654.102 438 649.656 438 649.656 429.403 644 429.403 644 425.329 649.656 425.329 649.656 409.139 644 417.234 644 411.132 650.465 402Z" fill="#ED1B23" fill-rule="evenodd"/><path d="M705.849 403C709.075 403 711.999 403.619 714.673 404.857 717.396 406.097 719.463 407.903 720.924 410.279 722.337 412.653 723.093 415.234 723.093 418.074 723.093 421.583 722.086 424.579 720.116 427.159 718.101 429.74 715.48 431.393 712.302 432.166L712.1 433.923 718.856 433.923C720.372 433.923 721.43 433.663 722.036 433.199 722.64 432.734 722.993 432.012 723.093 430.979L724 430.979 724 438 710.035 438 710.587 430.928C712.908 429.947 714.622 428.553 715.68 426.694 716.791 424.887 717.344 422.306 717.344 419.002 717.344 414.409 716.235 410.898 714.07 408.471 711.9 406.046 709.176 404.806 705.849 404.806 702.671 404.806 700.001 406.046 697.781 408.523 695.612 411.002 694.502 414.356 694.502 418.64 694.502 421.997 695.058 424.682 696.167 426.694 697.276 428.709 698.99 430.101 701.26 430.928L701.866 438 688 438 688 430.979 688.905 430.979C688.956 432.012 689.209 432.682 689.663 433.044 690.418 433.612 691.478 433.923 692.991 433.923L699.647 433.923 699.647 432.166C696.218 431.134 693.544 429.379 691.681 426.901 689.764 424.371 688.855 421.481 688.855 418.074 688.855 413.84 690.368 410.279 693.445 407.337 696.518 404.446 700.653 403 705.849 403Z" fill="#ED1B23" fill-rule="evenodd"/><path d="M382.5 515.5C387.472 515.5 391.5 519.529 391.5 524.5 391.5 529.471 387.472 533.5 382.5 533.5 377.528 533.5 373.5 529.471 373.5 524.5 373.5 519.529 377.528 515.5 382.5 515.5Z" stroke="#221F20" stroke-width="1.29921" stroke-miterlimit="2.91155" fill="#221F20" fill-rule="evenodd"/><path d="M509 360 496.286 407.592 495.696 406.381 495.082 405.199 494.446 404.048 493.786 402.925 493.102 401.833 492.396 400.77 491.665 399.738 490.912 398.735 490.133 397.761 489.333 396.818 488.51 395.905 487.661 395.022 486.792 394.168 486.494 393.893 387.183 520.353C386.08 521.757 384.048 522 382.646 520.896 381.243 519.793 381 517.758 382.103 516.354L481.413 389.896 481.075 389.67 480.041 389.026 478.983 388.41 477.901 387.823 476.797 387.268 475.668 386.741 474.517 386.246 473.343 385.779 472.145 385.343 470.922 384.935 469.677 384.559 468.408 384.212 467.117 383.894 465.801 383.606 509 360Z" fill="#221F20" fill-rule="evenodd"/><path d="M69.4998 515.5C74.472 515.5 78.4999 519.529 78.4999 524.5 78.4999 529.473 74.472 533.5 69.4998 533.5 64.5286 533.5 60.5 529.473 60.5 524.5 60.5 519.529 64.5286 515.5 69.4998 515.5Z" stroke="#221F20" stroke-width="1.29921" stroke-miterlimit="2.91155" fill="#221F20" fill-rule="evenodd"/><path d="M698.694 112 723 112 723 116.018 718.626 116.018C717.104 116.018 716.115 116.018 715.584 116.093L710.485 136.256 718.701 136.256 723 135.954 723 140.268 719.691 139.593 709.65 139.593 704.551 159.831C705.616 159.906 707.746 159.982 710.941 159.982 711.322 159.982 711.627 160.134 711.931 160.437 712.16 160.74 712.311 161.119 712.311 161.499 712.311 162.938 711.779 163.772 710.714 164L686.37 164C685.989 164 685.685 163.848 685.456 163.469 685.151 163.165 685 162.788 685 162.483 685 161.043 685.533 160.209 686.674 159.982 690.325 159.982 692.76 159.906 693.824 159.754L704.779 116.17C703.791 116.093 701.661 116.018 698.466 116.018 698.085 116.018 697.704 115.866 697.476 115.563 697.173 115.183 697.018 114.881 697.018 114.501 697.018 113.062 697.553 112.228 698.694 112Z" fill="#221F20" fill-rule="evenodd"/><path d="M723 112 726.379 112C729.563 112 732.825 112.302 736.086 112.904 739.272 113.583 742.068 114.714 744.399 116.448 746.651 118.184 747.816 120.594 747.816 123.612 747.816 125.57 747.35 127.379 746.34 128.963 745.33 130.546 744.088 131.979 742.457 133.186 740.826 134.39 739.117 135.372 737.252 136.201 735.387 136.954 733.446 137.634 731.426 138.161 733.291 138.914 734.767 140.045 735.855 141.478 737.02 142.985 737.563 144.644 737.563 146.528L737.563 147.659 736.786 154.218C736.709 155.425 736.632 156.329 736.632 156.858 736.632 158.364 736.865 159.572 737.407 160.401 737.874 161.305 738.883 161.757 740.204 161.757 741.758 161.757 743.077 161.155 744.322 159.947 745.564 158.668 746.418 157.31 746.805 155.801 746.884 155.5 747.039 155.198 747.271 154.971 747.505 154.672 747.816 154.596 748.204 154.596L749.601 154.596C749.99 154.596 750.3 154.746 750.534 155.048 750.845 155.349 751 155.727 751 156.102L751 156.48C750.612 157.989 749.835 159.421 748.749 160.703 747.738 161.984 746.418 163.039 744.864 163.869 743.389 164.622 741.834 165 740.204 165 729.563 165 724.204 162.135 724.204 156.48 724.204 155.727 724.283 154.823 724.516 153.766L726.223 147.133C726.379 146.604 726.457 145.925 726.457 145.324 726.457 144.041 726.147 142.985 725.524 142.08 724.903 141.252 724.049 140.574 723.038 140.122L723 140.114 723 135.824 725.214 135.673C727.078 135.372 728.864 134.693 730.574 133.637 732.126 132.733 733.37 130.998 734.379 128.662 735.311 126.248 735.776 123.987 735.776 121.802 735.776 120.067 735.155 118.785 733.914 117.88 732.591 117.053 731.194 116.524 729.485 116.297 727.855 116.071 725.991 115.996 723.817 115.996L723 115.996 723 112Z" fill="#221F20" fill-rule="evenodd"/><path d="M763.825 162C764.652 162 765.515 162.117 766.382 162.352 767.206 162.586 767.915 162.978 768.506 163.526 769.095 164.073 769.372 164.778 769.372 165.639 769.372 166.5 769.057 167.282 768.467 167.909 767.876 168.575 767.129 168.887 766.304 168.887 765.712 168.887 765.201 168.692 764.807 168.34 764.374 167.987 764.178 167.518 764.178 166.932 764.178 166.344 764.374 165.796 764.729 165.288 765.082 164.778 765.515 164.426 766.068 164.191 765.397 163.838 764.611 163.683 763.707 163.683 762.407 163.683 761.267 164.034 760.206 164.7 759.142 165.365 758.356 166.266 757.766 167.401 757.49 168.026 757.176 168.81 756.901 169.707 756.626 170.647 756.39 171.587 756.193 172.566 755.995 173.505 755.918 174.249 755.918 174.835 755.918 175.97 756.27 176.831 756.941 177.417 757.609 178.005 758.552 178.318 759.694 178.318 761.502 178.318 763.116 178.083 764.611 177.652 766.106 177.182 767.325 176.401 768.347 175.265 768.467 175.149 768.623 175.108 768.781 175.108 769.018 175.108 769.292 175.227 769.567 175.501 769.843 175.773 770 176.047 770 176.323 770 176.478 769.922 176.635 769.803 176.752 769.018 177.613 768.034 178.318 766.932 178.787 765.831 179.295 764.69 179.609 763.51 179.765 762.33 179.921 761.031 180 759.575 180 757.137 180 755.09 179.414 753.477 178.279 751.825 177.144 751 175.461 751 173.153 751 171.509 751.353 170.023 752.062 168.613 752.769 167.244 753.714 166.032 754.933 165.052 756.153 164.073 757.529 163.291 759.064 162.783 760.639 162.274 762.211 162 763.825 162Z" fill="#221F20" fill-rule="evenodd"/><path d="M508 26.0001 800.302 26.1375 801 70.0001" stroke="#221F20" stroke-width="6.49606" stroke-miterlimit="2.91155" fill="none" fill-rule="evenodd"/><path d="M801 205 802 342" stroke="#221F20" stroke-width="6.49606" stroke-miterlimit="2.91155" fill="none" fill-rule="evenodd"/><path d="M801 449 801 525 71.0002 524.667" stroke="#221F20" stroke-width="6.49606" stroke-miterlimit="2.91155" fill="none" fill-rule="evenodd"/><path d="M508.5 17.5C513.471 17.5 517.5 21.5287 517.5 26.5003 517.5 31.4726 513.471 35.4999 508.5 35.4999 503.528 35.4999 499.5 31.4726 499.5 26.5003 499.5 21.5287 503.528 17.5 508.5 17.5Z" stroke="#221F20" stroke-width="1.29921" stroke-miterlimit="2.91155" fill="#221F20" fill-rule="evenodd"/><path d="M314 123 362 123 362 259 314 259 314 123Z" stroke="#221F20" stroke-width="6.49462" stroke-linecap="round" stroke-linejoin="round" stroke-miterlimit="10" fill="none" fill-rule="evenodd"/><path d="M337 26.0001 338 123" stroke="#221F20" stroke-width="6.49606" stroke-miterlimit="2.91155" fill="none" fill-rule="evenodd"/><path d="M338 259 339 345" stroke="#221F20" stroke-width="6.49606" stroke-miterlimit="2.91155" fill="none" fill-rule="evenodd"/><path d="M337.501 17.5C342.472 17.5 346.5 21.5287 346.5 26.5003 346.5 31.4726 342.472 35.4999 337.501 35.4999 332.529 35.4999 328.5 31.4726 328.5 26.5003 328.5 21.5287 332.529 17.5 337.501 17.5Z" stroke="#221F20" stroke-width="1.29921" stroke-miterlimit="2.91155" fill="#221F20" fill-rule="evenodd"/><path d="M155 123 203 123 203 259 155 259 155 123Z" stroke="#221F20" stroke-width="6.49462" stroke-linecap="round" stroke-linejoin="round" stroke-miterlimit="10" fill="none" fill-rule="evenodd"/><path d="M178 26.0001 179 123" stroke="#221F20" stroke-width="6.49606" stroke-miterlimit="2.91155" fill="none" fill-rule="evenodd"/><path d="M179 259 180 345" stroke="#221F20" stroke-width="6.49606" stroke-miterlimit="2.91155" fill="none" fill-rule="evenodd"/><path d="M178.5 17.5C183.471 17.5 187.5 21.5287 187.5 26.5003 187.5 31.4726 183.471 35.4999 178.5 35.4999 173.528 35.4999 169.5 31.4726 169.5 26.5003 169.5 21.5287 173.528 17.5 178.5 17.5Z" stroke="#221F20" stroke-width="1.29921" stroke-miterlimit="2.91155" fill="#221F20" fill-rule="evenodd"/><path d="M179.5 336.5C184.471 336.5 188.5 340.528 188.5 345.5 188.5 350.472 184.471 354.5 179.5 354.5 174.527 354.5 170.5 350.472 170.5 345.5 170.5 340.528 174.527 336.5 179.5 336.5Z" stroke="#221F20" stroke-width="1.29921" stroke-miterlimit="2.91155" fill="#221F20" fill-rule="evenodd"/><path d="M338.5 336.5C343.471 336.5 347.5 340.528 347.5 345.5 347.5 350.472 343.471 354.5 338.5 354.5 333.528 354.5 329.5 350.472 329.5 345.5 329.5 340.528 333.528 336.5 338.5 336.5Z" stroke="#221F20" stroke-width="1.29921" stroke-miterlimit="2.91155" fill="#221F20" fill-rule="evenodd"/><path d="M179.5 336.5C184.471 336.5 188.5 340.528 188.5 345.5 188.5 350.472 184.471 354.5 179.5 354.5 174.527 354.5 170.5 350.472 170.5 345.5 170.5 340.528 174.527 336.5 179.5 336.5Z" stroke="#221F20" stroke-width="1.29921" stroke-miterlimit="2.91155" fill="#221F20" fill-rule="evenodd"/><path d="M509.5 336.5C514.471 336.5 518.5 340.528 518.5 345.5 518.5 350.472 514.471 354.5 509.5 354.5 504.527 354.5 500.5 350.472 500.5 345.5 500.5 340.528 504.527 336.5 509.5 336.5Z" stroke="#221F20" stroke-width="1.29921" stroke-miterlimit="2.91155" fill="#221F20" fill-rule="evenodd"/><path d="M383.694 159 408 159 408 163.095 403.625 163.095C402.103 163.095 401.115 163.095 400.583 163.171L395.485 183.723 403.701 183.723 408 183.415 408 187.81 404.691 187.123 394.649 187.123 389.55 207.751C390.616 207.827 392.747 207.905 395.941 207.905 396.322 207.905 396.625 208.06 396.931 208.368 397.159 208.678 397.31 209.064 397.31 209.449 397.31 210.917 396.779 211.767 395.712 212L371.369 212C370.987 212 370.683 211.845 370.456 211.459 370.15 211.149 370 210.763 370 210.454 370 208.986 370.531 208.136 371.673 207.905 375.325 207.905 377.76 207.827 378.824 207.672L389.779 163.25C388.79 163.171 386.66 163.095 383.465 163.095 383.084 163.095 382.704 162.94 382.475 162.632 382.171 162.245 382.019 161.936 382.019 161.549 382.019 160.082 382.552 159.231 383.694 159Z" fill="#221F20" fill-rule="evenodd"/><path d="M408 159 411.38 159C414.562 159 417.824 159.308 421.088 159.922 424.271 160.613 427.069 161.765 429.398 163.532 431.652 165.299 432.817 167.756 432.817 170.831 432.817 172.826 432.352 174.67 431.339 176.283 430.331 177.896 429.088 179.355 427.457 180.585 425.826 181.813 424.116 182.812 422.253 183.657 420.388 184.426 418.447 185.117 416.427 185.655 418.291 186.422 419.768 187.574 420.854 189.035 422.019 190.57 422.564 192.26 422.564 194.18L422.564 195.332 421.786 202.015C421.709 203.243 421.633 204.166 421.633 204.704 421.633 206.239 421.865 207.47 422.409 208.313 422.874 209.235 423.884 209.696 425.205 209.696 426.759 209.696 428.077 209.082 429.322 207.852 430.564 206.547 431.419 205.165 431.807 203.628 431.884 203.321 432.039 203.013 432.272 202.782 432.504 202.476 432.817 202.4 433.204 202.4L434.603 202.4C434.991 202.4 435.301 202.553 435.534 202.861 435.846 203.167 436 203.552 436 203.934L436 204.319C435.614 205.857 434.835 207.316 433.749 208.622 432.738 209.927 431.419 211.002 429.865 211.848 428.39 212.615 426.836 213 425.205 213 414.562 213 409.203 210.081 409.203 204.319 409.203 203.552 409.283 202.631 409.515 201.555L411.224 194.796C411.38 194.257 411.456 193.566 411.456 192.953 411.456 191.646 411.146 190.57 410.524 189.648 409.903 188.804 409.049 188.113 408.038 187.651L408 187.644 408 183.274 410.214 183.119C412.079 182.812 413.863 182.121 415.573 181.046 417.126 180.123 418.369 178.356 419.379 175.976 420.312 173.517 420.778 171.213 420.778 168.987 420.778 167.22 420.155 165.912 418.913 164.991 417.592 164.148 416.193 163.61 414.485 163.378 412.855 163.147 410.99 163.072 408.816 163.072L408 163.072 408 159Z" fill="#221F20" fill-rule="evenodd"/><path d="M450.738 185C452.993 185 455.137 185.233 457.334 185.703 459.477 186.171 461.281 187.05 462.803 188.339 464.267 189.626 465 191.443 465 193.726 465 195.015 464.663 196.128 464.041 197.065 463.364 197.944 462.463 198.706 461.393 199.29 460.322 199.934 458.97 200.58 457.277 201.282 455.53 201.985 454.629 202.335 454.402 202.453L449.386 204.971 450.683 204.971C456.433 204.971 459.871 204.913 460.999 204.853 461.223 204.563 461.449 204.035 461.618 203.273 461.843 202.57 462.012 202.042 462.126 201.75 462.294 201.457 462.576 201.223 462.971 201.164L463.986 201.164C464.267 201.164 464.492 201.282 464.718 201.516 464.888 201.809 465 202.042 465 202.335L465 202.57 463.253 211.062C463.196 211.296 463.085 211.531 462.859 211.706 462.689 211.882 462.463 212 462.237 212L439.07 212C438.788 212 438.563 211.882 438.337 211.647 438.112 211.413 438 211.178 438 210.887L438 209.715C438 209.482 438.168 209.247 438.395 209.013L451.36 200.87C453.106 199.759 454.46 198.646 455.418 197.591 456.375 196.538 456.883 195.248 456.883 193.726 456.883 192.38 456.433 191.266 455.587 190.447 454.742 189.569 453.669 188.982 452.431 188.632 451.135 188.279 449.836 188.104 448.598 188.104 446.85 188.104 445.384 188.398 444.144 188.923 444.821 189.509 445.158 190.329 445.158 191.325 445.158 192.262 444.876 193.083 444.199 193.726 443.58 194.37 442.847 194.663 442.002 194.663 441.1 194.663 440.311 194.37 439.69 193.726 439.07 193.023 438.733 192.262 438.733 191.325 438.733 189.451 439.41 188.104 440.649 187.168 441.945 186.23 443.469 185.643 445.215 185.41 446.905 185.118 448.767 185 450.738 185Z" fill="#221F20" fill-rule="evenodd"/><path d="M223.694 157 248 157 248 161.018 243.625 161.018C242.103 161.018 241.115 161.018 240.582 161.092L235.485 181.256 243.701 181.256 248 180.954 248 185.267 244.691 184.593 234.648 184.593 229.55 204.831C230.616 204.906 232.746 204.982 235.941 204.982 236.322 204.982 236.625 205.134 236.931 205.436 237.159 205.74 237.31 206.119 237.31 206.497 237.31 207.937 236.778 208.772 235.712 209L211.369 209C210.988 209 210.684 208.848 210.456 208.469 210.15 208.165 210 207.787 210 207.483 210 206.043 210.531 205.209 211.673 204.982 215.325 204.982 217.76 204.906 218.824 204.754L229.779 161.17C228.79 161.092 226.66 161.018 223.465 161.018 223.084 161.018 222.704 160.866 222.475 160.563 222.171 160.183 222.019 159.88 222.019 159.501 222.019 158.061 222.553 157.227 223.694 157Z" fill="#221F20" fill-rule="evenodd"/><path d="M248 157 251.258 157C254.328 157 257.473 157.308 260.62 157.921 263.69 158.613 266.388 159.765 268.634 161.532 270.807 163.299 271.931 165.756 271.931 168.831 271.931 170.826 271.482 172.67 270.505 174.283 269.534 175.895 268.335 177.356 266.762 178.585 265.189 179.813 263.54 180.812 261.743 181.657 259.946 182.425 258.074 183.117 256.126 183.655 257.924 184.422 259.347 185.575 260.395 187.035 261.518 188.569 262.044 190.26 262.044 192.18L262.044 193.332 261.293 200.015C261.219 201.243 261.146 202.166 261.146 202.704 261.146 204.239 261.369 205.47 261.894 206.313 262.343 207.235 263.316 207.696 264.59 207.696 266.089 207.696 267.36 207.082 268.56 205.852 269.757 204.547 270.582 203.165 270.956 201.628 271.031 201.321 271.18 201.013 271.405 200.782 271.629 200.476 271.931 200.4 272.304 200.4L273.652 200.4C274.027 200.4 274.326 200.552 274.551 200.861 274.851 201.167 275 201.552 275 201.934L275 202.319C274.627 203.857 273.876 205.316 272.829 206.622 271.855 207.927 270.582 209.002 269.084 209.848 267.662 210.615 266.163 211 264.59 211 254.328 211 249.16 208.081 249.16 202.319 249.16 201.552 249.237 200.631 249.46 199.554L251.108 192.796C251.258 192.257 251.332 191.565 251.332 190.952 251.332 189.646 251.033 188.569 250.434 187.648 249.834 186.804 249.011 186.114 248.037 185.651L248 185.644 248 181.273 250.135 181.119C251.933 180.812 253.653 180.121 255.302 179.045 256.8 178.123 257.999 176.356 258.972 173.976 259.872 171.517 260.321 169.213 260.321 166.986 260.321 165.219 259.721 163.912 258.523 162.991 257.249 162.148 255.9 161.609 254.254 161.378 252.681 161.147 250.883 161.072 248.786 161.072L248 161.072 248 157Z" fill="#221F20" fill-rule="evenodd"/><text fill="#221F20" font-family="Times New Roman,Times New Roman_MSFontService,sans-serif" font-weight="700" font-size="46" transform="matrix(1 0 0 1 339.738 229)">3</text><text fill="#221F20" font-family="Arial,Arial_MSFontService,sans-serif" font-weight="400" font-size="110" transform="matrix(1 0 0 1 65.5417 108)">+</text><text fill="#221F20" font-family="Arial,Arial_MSFontService,sans-serif" font-weight="400" font-size="110" transform="matrix(1 0 0 1 77.9665 575)">-</text></g></svg>