<svg width="1540" height="1399" xmlns="http://www.w3.org/2000/svg" xmlns:xlink="http://www.w3.org/1999/xlink" xml:space="preserve" overflow="hidden"><g transform="translate(-549 -351)"><path d="M827.5 482.5 2024.71 482.5" stroke="#000000" stroke-width="6.875" stroke-miterlimit="8" fill="none" fill-rule="evenodd"/><rect x="1245" y="417" width="260" height="130" stroke="#000000" stroke-width="8.02083" stroke-miterlimit="8" fill="#FFFFFF"/><path d="M0 0 0.000360892 516.492" stroke="#000000" stroke-width="6.875" stroke-miterlimit="8" fill="none" fill-rule="evenodd" transform="matrix(1 0 0 -1 2025.5 1531.99)"/><path d="M0 0 0.000360892 533.385" stroke="#000000" stroke-width="6.875" stroke-miterlimit="8" fill="none" fill-rule="evenodd" transform="matrix(1 0 0 -1 2025.5 1015.88)"/><rect x="1956" y="884" width="129" height="259" stroke="#000000" stroke-width="8.02083" stroke-miterlimit="8" fill="#FFFFFF"/><path d="M1335.62 630.601C1334.19 630.601 1332.68 630.655 1331.09 630.763L1325.9 654.228 1330.68 654.228C1334.6 654.228 1337.69 653.701 1339.96 652.647 1342.23 651.594 1344.03 649.865 1345.35 647.46 1346.68 645.055 1347.34 642.462 1347.34 639.679 1347.34 638.517 1347.23 637.483 1347.01 636.578 1346.8 635.673 1346.51 634.924 1346.16 634.329 1345.81 633.735 1345.36 633.208 1344.82 632.749 1344.28 632.289 1343.61 631.891 1342.8 631.553 1341.99 631.215 1341.05 630.972 1339.98 630.823 1338.91 630.675 1337.46 630.601 1335.62 630.601ZM1319.37 627.034 1337.41 627.034C1340.27 627.034 1342.61 627.203 1344.42 627.541 1346.23 627.878 1347.78 628.385 1349.06 629.061 1350.34 629.736 1351.42 630.607 1352.28 631.675 1353.15 632.742 1353.79 633.944 1354.23 635.281 1354.66 636.619 1354.88 638.044 1354.88 639.557 1354.88 643.718 1353.61 647.257 1351.07 650.175 1348.53 653.093 1344.78 655.309 1339.84 656.822L1339.84 657.268C1341.14 658.24 1342.18 659.402 1342.98 660.753 1343.78 662.104 1344.42 663.982 1344.91 666.386L1345.84 671.087C1346.14 672.573 1346.47 673.911 1346.85 675.1 1347.23 676.288 1347.68 677.234 1348.21 677.937 1348.74 678.639 1349.33 679.166 1349.99 679.517 1350.65 679.868 1351.62 680.152 1352.89 680.368L1352.48 682.354 1341.26 682.354C1340.39 679.949 1339.62 677.085 1338.95 673.762L1337.16 665.17C1336.87 663.684 1336.51 662.435 1336.09 661.422 1335.67 660.408 1335.17 659.625 1334.59 659.071 1334.01 658.517 1333.34 658.152 1332.57 657.977 1331.8 657.801 1330.86 657.713 1329.75 657.713L1325.13 657.713 1322.29 670.561C1322.05 671.614 1321.88 672.452 1321.78 673.073 1321.69 673.695 1321.61 674.35 1321.54 675.039 1321.47 675.728 1321.44 676.342 1321.44 676.883 1321.44 677.72 1321.58 678.376 1321.85 678.848 1322.12 679.321 1322.52 679.666 1323.06 679.882 1323.6 680.098 1324.53 680.26 1325.86 680.368L1325.41 682.354 1308.76 682.354 1309.2 680.368C1310.23 680.206 1311 679.943 1311.51 679.578 1312.02 679.213 1312.46 678.707 1312.81 678.058 1313.16 677.41 1313.48 676.619 1313.78 675.687 1314.08 674.755 1314.52 672.952 1315.12 670.277L1322.01 639.071C1322.6 636.369 1322.9 634.235 1322.9 632.667 1322.9 631.344 1322.59 630.425 1321.97 629.912 1321.35 629.398 1320.33 629.101 1318.93 629.02Z" fill-rule="evenodd"/><text fill="#000000" fill-opacity="0" font-family="Arial,Arial_MSFontService,sans-serif" font-size="55.3198" x="1308.76" y="675.439">𝑅</text><path d="M1418.39 672.186C1417.23 672.186 1416.16 672.44 1415.16 672.948 1414.17 673.456 1413.26 674.149 1412.44 675.028 1411.62 675.907 1410.89 676.922 1410.26 678.075 1409.62 679.227 1409.09 680.448 1408.65 681.737 1408.21 683.026 1407.87 684.349 1407.65 685.707 1407.43 687.064 1407.31 688.368 1407.31 689.618 1407.31 691.727 1407.61 693.294 1408.21 694.32 1408.8 695.345 1409.76 695.858 1411.09 695.858 1411.76 695.858 1412.4 695.741 1413.01 695.506 1413.63 695.272 1414.28 694.901 1414.96 694.393 1416.68 693.045 1418.14 691.405 1419.35 689.471 1420.56 687.538 1421.47 685.252 1422.08 682.616 1422.35 681.405 1422.57 680.311 1422.72 679.334 1422.88 678.358 1422.96 677.43 1422.96 676.551 1422.96 674.989 1422.59 673.871 1421.86 673.197 1421.13 672.523 1419.97 672.186 1418.39 672.186ZM1445.4 669.286C1446.84 669.286 1447.96 669.759 1448.75 670.707 1449.54 671.654 1449.94 672.899 1449.94 674.442 1449.94 675.321 1449.8 676.102 1449.53 676.786L1449.94 676.961C1451.91 674.325 1453.83 672.386 1455.69 671.146 1457.56 669.906 1459.48 669.286 1461.45 669.286 1462.19 669.286 1462.89 669.325 1463.55 669.403 1464.2 669.481 1464.83 669.579 1465.44 669.696L1463.94 676.786 1460.54 676.786C1460.45 675.614 1460.2 674.774 1459.8 674.266 1459.4 673.758 1458.81 673.504 1458.05 673.504 1457.6 673.485 1457.09 673.622 1456.5 673.915 1455.91 674.208 1455.29 674.627 1454.64 675.174 1453.99 675.721 1453.34 676.366 1452.69 677.108 1452.05 677.85 1451.44 678.661 1450.86 679.54 1450.28 680.418 1449.78 681.351 1449.35 682.337 1448.92 683.324 1448.6 684.315 1448.39 685.311L1445.4 699.198 1439.65 699.198 1444.05 680.096C1444.32 678.963 1444.51 678.026 1444.62 677.284 1444.73 676.542 1444.78 675.917 1444.78 675.409 1444.78 673.983 1444.21 673.27 1443.05 673.27 1442.68 673.27 1442.32 673.343 1441.95 673.49 1441.59 673.636 1441.22 673.856 1440.83 674.149 1440.44 674.442 1440.01 674.813 1439.54 675.262 1439.07 675.711 1438.54 676.239 1437.96 676.844L1435.93 674.94C1436.91 673.944 1437.8 673.089 1438.61 672.376 1439.43 671.664 1440.2 671.078 1440.94 670.619 1441.69 670.16 1442.42 669.823 1443.14 669.608 1443.86 669.393 1444.62 669.286 1445.4 669.286ZM1417.86 669.286C1419.4 669.286 1420.76 669.466 1421.95 669.828 1423.13 670.189 1424.21 670.682 1425.18 671.307L1428.03 669.286 1430.4 669.901 1425.97 689.09C1425.72 690.184 1425.55 691.087 1425.45 691.8 1425.35 692.513 1425.3 693.143 1425.3 693.69 1425.3 694.432 1425.45 694.969 1425.76 695.301 1426.06 695.633 1426.49 695.799 1427.06 695.799 1427.41 695.799 1427.76 695.731 1428.1 695.594 1428.44 695.458 1428.81 695.243 1429.21 694.95 1429.61 694.657 1430.05 694.281 1430.53 693.822 1431.01 693.363 1431.55 692.811 1432.16 692.167 1432.47 692.499 1432.79 692.826 1433.12 693.148 1433.46 693.47 1433.78 693.788 1434.09 694.1 1433.11 695.096 1432.22 695.951 1431.42 696.664 1430.62 697.376 1429.85 697.962 1429.09 698.421 1428.34 698.88 1427.61 699.212 1426.88 699.417 1426.16 699.623 1425.41 699.725 1424.63 699.725 1423.22 699.725 1422.13 699.271 1421.35 698.363 1420.56 697.455 1420.17 696.209 1420.17 694.627 1420.17 693.749 1420.31 692.909 1420.58 692.108L1420.17 691.932C1419.18 693.319 1418.21 694.5 1417.27 695.477 1416.34 696.454 1415.41 697.259 1414.49 697.894 1413.57 698.529 1412.64 698.993 1411.71 699.286 1410.77 699.579 1409.79 699.725 1408.78 699.725 1406.45 699.725 1404.66 698.89 1403.39 697.22 1402.12 695.55 1401.48 693.124 1401.48 689.94 1401.48 688.045 1401.68 686.224 1402.08 684.476 1402.48 682.728 1403.05 681.087 1403.78 679.554 1404.51 678.021 1405.39 676.625 1406.4 675.365 1407.42 674.105 1408.53 673.026 1409.74 672.127 1410.96 671.229 1412.24 670.531 1413.61 670.033 1414.98 669.535 1416.39 669.286 1417.86 669.286ZM1360.72 661.2 1373.52 661.2 1373.08 663.045C1372.44 663.104 1371.9 663.231 1371.47 663.426 1371.04 663.622 1370.71 663.9 1370.46 664.261 1370.22 664.623 1370.05 665.082 1369.95 665.638 1369.85 666.195 1369.8 666.874 1369.8 667.674 1369.8 667.909 1369.81 668.236 1369.83 668.656 1369.85 669.076 1369.88 669.637 1369.92 670.34 1370.04 672.293 1370.16 674.286 1370.29 676.317 1370.41 678.348 1370.54 680.321 1370.65 682.235 1370.77 684.149 1370.87 685.97 1370.96 687.699 1371.05 689.427 1371.09 690.956 1371.09 692.284L1371.39 692.284 1383.22 672.479C1383.81 671.522 1384.29 670.692 1384.66 669.989 1385.03 669.286 1385.32 668.67 1385.54 668.143 1385.75 667.616 1385.9 667.142 1385.99 666.722 1386.08 666.302 1386.12 665.877 1386.12 665.448 1386.12 663.983 1385.09 663.182 1383.02 663.045L1383.4 661.2 1396.2 661.2 1395.85 663.045C1395.42 663.104 1395.02 663.182 1394.66 663.28 1394.3 663.377 1393.9 663.626 1393.47 664.027 1393.05 664.427 1392.54 665.023 1391.97 665.814 1391.39 666.605 1390.66 667.704 1389.78 669.11L1370.92 699.754 1366.64 699.754C1366.21 694.559 1365.78 689.398 1365.36 684.271 1364.94 679.144 1364.53 673.954 1364.12 668.7 1364.04 667.782 1363.93 666.991 1363.78 666.327 1363.64 665.663 1363.41 665.096 1363.11 664.627 1362.81 664.159 1362.43 663.797 1362 663.543 1361.56 663.29 1360.99 663.124 1360.31 663.045Z" fill-rule="evenodd"/><text fill="#000000" fill-opacity="0" font-family="Arial,Arial_MSFontService,sans-serif" font-size="38.5547" x="1360.31" y="694.935">𝑉𝑎𝑟</text><path d="M1838.17 997.156C1836.73 997.156 1835.22 997.211 1833.63 997.319L1828.44 1020.78 1833.22 1020.78C1837.14 1020.78 1840.23 1020.26 1842.5 1019.2 1844.77 1018.15 1846.57 1016.42 1847.89 1014.02 1849.22 1011.61 1849.88 1009.02 1849.88 1006.23 1849.88 1005.07 1849.77 1004.04 1849.55 1003.13 1849.34 1002.23 1849.05 1001.48 1848.7 1000.89 1848.35 1000.29 1847.91 999.764 1847.37 999.304 1846.82 998.845 1846.15 998.447 1845.34 998.109 1844.53 997.771 1843.59 997.528 1842.52 997.379 1841.45 997.231 1840 997.156 1838.17 997.156ZM1821.91 993.59 1839.95 993.59C1842.81 993.59 1845.15 993.759 1846.96 994.097 1848.77 994.434 1850.32 994.941 1851.6 995.616 1852.88 996.292 1853.96 997.163 1854.82 998.23 1855.69 999.298 1856.34 1000.5 1856.77 1001.84 1857.2 1003.17 1857.42 1004.6 1857.42 1006.11 1857.42 1010.27 1856.15 1013.81 1853.61 1016.73 1851.07 1019.65 1847.32 1021.86 1842.38 1023.38L1842.38 1023.82C1843.68 1024.8 1844.72 1025.96 1845.52 1027.31 1846.32 1028.66 1846.96 1030.54 1847.45 1032.94L1848.38 1037.64C1848.68 1039.13 1849.01 1040.47 1849.39 1041.66 1849.77 1042.84 1850.22 1043.79 1850.75 1044.49 1851.28 1045.19 1851.87 1045.72 1852.53 1046.07 1853.19 1046.42 1854.16 1046.71 1855.43 1046.92L1855.02 1048.91 1843.8 1048.91C1842.93 1046.51 1842.16 1043.64 1841.49 1040.32L1839.71 1031.73C1839.41 1030.24 1839.05 1028.99 1838.63 1027.98 1838.21 1026.96 1837.71 1026.18 1837.13 1025.63 1836.55 1025.07 1835.88 1024.71 1835.11 1024.53 1834.34 1024.36 1833.4 1024.27 1832.29 1024.27L1827.67 1024.27 1824.83 1037.12C1824.59 1038.17 1824.42 1039.01 1824.33 1039.63 1824.23 1040.25 1824.15 1040.91 1824.08 1041.59 1824.01 1042.28 1823.98 1042.9 1823.98 1043.44 1823.98 1044.28 1824.12 1044.93 1824.39 1045.4 1824.66 1045.88 1825.06 1046.22 1825.6 1046.44 1826.14 1046.65 1827.07 1046.82 1828.4 1046.92L1827.95 1048.91 1811.3 1048.91 1811.74 1046.92C1812.77 1046.76 1813.54 1046.5 1814.05 1046.13 1814.57 1045.77 1815 1045.26 1815.35 1044.61 1815.7 1043.97 1816.02 1043.18 1816.32 1042.24 1816.62 1041.31 1817.06 1039.51 1817.66 1036.83L1824.55 1005.63C1825.14 1002.92 1825.44 1000.79 1825.44 999.223 1825.44 997.899 1825.13 996.981 1824.51 996.468 1823.89 995.954 1822.87 995.657 1821.47 995.576Z" fill-rule="evenodd"/><text fill="#000000" fill-opacity="0" font-family="Arial,Arial_MSFontService,sans-serif" font-size="55.3198" x="1811.3" y="1041.99">𝑅</text><path d="M1877.76 1027.81C1879.79 1027.81 1881.53 1028.04 1882.96 1028.5 1884.4 1028.96 1885.57 1029.58 1886.46 1030.36 1887.36 1031.14 1888.01 1032.08 1888.41 1033.18 1888.81 1034.27 1889.01 1035.45 1889.01 1036.72 1889.01 1037.48 1888.96 1038.19 1888.85 1038.84 1888.74 1039.5 1888.56 1040.14 1888.3 1040.78 1888.03 1041.41 1887.69 1042.05 1887.26 1042.7 1886.83 1043.34 1886.29 1044.03 1885.64 1044.75 1885.16 1045.37 1884.52 1046.1 1883.74 1046.92 1882.96 1047.74 1882.1 1048.61 1881.18 1049.55 1880.25 1050.49 1879.28 1051.47 1878.26 1052.48 1877.25 1053.5 1876.26 1054.5 1875.3 1055.5 1874.35 1056.5 1873.47 1057.46 1872.67 1058.4 1871.87 1059.34 1871.21 1060.2 1870.7 1060.98L1881.54 1060.98C1882.46 1060.98 1883.19 1060.94 1883.74 1060.88 1884.29 1060.81 1884.74 1060.66 1885.1 1060.42 1885.46 1060.19 1885.77 1059.83 1886.03 1059.35 1886.28 1058.87 1886.57 1058.21 1886.9 1057.37L1889.63 1057.37C1889.53 1058.76 1889.44 1060.16 1889.35 1061.56 1889.26 1062.97 1889.17 1064.37 1889.07 1065.75L1864.26 1065.75 1864.26 1064.23C1864.73 1063.18 1865.27 1062.14 1865.9 1061.11 1866.52 1060.08 1867.23 1059.04 1868.01 1057.99 1868.79 1056.94 1869.68 1055.85 1870.67 1054.72 1871.67 1053.6 1872.77 1052.43 1873.98 1051.22 1875.82 1049.39 1877.31 1047.82 1878.47 1046.52 1879.62 1045.22 1880.53 1044.06 1881.19 1043.05 1881.86 1042.03 1882.31 1041.1 1882.55 1040.24 1882.8 1039.38 1882.92 1038.46 1882.92 1037.48 1882.92 1036.49 1882.78 1035.57 1882.49 1034.73 1882.21 1033.89 1881.81 1033.18 1881.28 1032.59 1880.75 1032 1880.08 1031.54 1879.27 1031.21 1878.46 1030.88 1877.53 1030.71 1876.47 1030.71 1874.66 1030.71 1873.13 1031.21 1871.9 1032.19 1870.67 1033.18 1869.72 1034.61 1869.03 1036.49L1865.2 1036.49 1865.2 1030.77C1867.7 1029.74 1869.99 1028.99 1872.09 1028.52 1874.19 1028.05 1876.08 1027.81 1877.76 1027.81Z" fill-rule="evenodd"/><text fill="#000000" fill-opacity="0" font-family="Arial,Arial_MSFontService,sans-serif" font-size="37.9395" x="1864.26" y="1061.01">2</text><path d="M1629.05 1349.42C1627.62 1349.42 1626.11 1349.48 1624.51 1349.59L1619.33 1373.05 1624.11 1373.05C1628.03 1373.05 1631.12 1372.52 1633.39 1371.47 1635.66 1370.42 1637.46 1368.69 1638.78 1366.28 1640.1 1363.88 1640.77 1361.28 1640.77 1358.5 1640.77 1357.34 1640.66 1356.31 1640.44 1355.4 1640.23 1354.5 1639.94 1353.75 1639.59 1353.15 1639.24 1352.56 1638.79 1352.03 1638.25 1351.57 1637.71 1351.11 1637.04 1350.71 1636.23 1350.38 1635.42 1350.04 1634.48 1349.8 1633.41 1349.65 1632.34 1349.5 1630.89 1349.42 1629.05 1349.42ZM1612.8 1345.86 1630.84 1345.86C1633.7 1345.86 1636.04 1346.03 1637.85 1346.36 1639.66 1346.7 1641.21 1347.21 1642.49 1347.88 1643.77 1348.56 1644.85 1349.43 1645.71 1350.5 1646.58 1351.57 1647.22 1352.77 1647.66 1354.1 1648.09 1355.44 1648.3 1356.87 1648.3 1358.38 1648.3 1362.54 1647.03 1366.08 1644.49 1369 1641.96 1371.92 1638.21 1374.13 1633.27 1375.65L1633.27 1376.09C1634.57 1377.06 1635.61 1378.23 1636.41 1379.58 1637.21 1380.93 1637.85 1382.8 1638.33 1385.21L1639.27 1389.91C1639.56 1391.4 1639.9 1392.73 1640.28 1393.92 1640.66 1395.11 1641.11 1396.06 1641.64 1396.76 1642.16 1397.46 1642.76 1397.99 1643.42 1398.34 1644.08 1398.69 1645.05 1398.98 1646.32 1399.19L1645.91 1401.18 1634.69 1401.18C1633.82 1398.77 1633.05 1395.91 1632.38 1392.59L1630.59 1383.99C1630.3 1382.51 1629.94 1381.26 1629.52 1380.24 1629.1 1379.23 1628.6 1378.45 1628.02 1377.89 1627.44 1377.34 1626.76 1376.98 1625.99 1376.8 1625.22 1376.62 1624.29 1376.54 1623.18 1376.54L1618.56 1376.54 1615.72 1389.38C1615.48 1390.44 1615.31 1391.28 1615.21 1391.9 1615.12 1392.52 1615.04 1393.17 1614.97 1393.86 1614.9 1394.55 1614.87 1395.17 1614.87 1395.71 1614.87 1396.54 1615 1397.2 1615.27 1397.67 1615.54 1398.14 1615.95 1398.49 1616.49 1398.71 1617.03 1398.92 1617.96 1399.08 1619.29 1399.19L1618.84 1401.18 1602.18 1401.18 1602.63 1399.19C1603.66 1399.03 1604.43 1398.77 1604.94 1398.4 1605.45 1398.04 1605.89 1397.53 1606.24 1396.88 1606.59 1396.23 1606.91 1395.44 1607.21 1394.51 1607.51 1393.58 1607.95 1391.77 1608.55 1389.1L1615.44 1357.89C1616.03 1355.19 1616.33 1353.06 1616.33 1351.49 1616.33 1350.17 1616.02 1349.25 1615.4 1348.73 1614.77 1348.22 1613.76 1347.92 1612.36 1347.84Z" fill-rule="evenodd"/><text fill="#000000" fill-opacity="0" font-family="Arial,Arial_MSFontService,sans-serif" font-size="55.3198" x="1602.18" y="1394.26">𝑅</text><path d="M1672.78 1385.94C1671.08 1388.71 1669.4 1391.49 1667.73 1394.28 1666.06 1397.06 1664.37 1399.85 1662.67 1402.64L1673.95 1402.64C1673.86 1401.39 1673.76 1400.16 1673.66 1398.96 1673.56 1397.76 1673.49 1396.5 1673.43 1395.17 1673.37 1393.84 1673.31 1392.43 1673.27 1390.92 1673.22 1389.42 1673.19 1387.76 1673.19 1385.94ZM1672.67 1379.52 1677.5 1379.52 1680.17 1410.49C1680.24 1411.49 1680.37 1412.33 1680.53 1413.01 1680.7 1413.69 1680.93 1414.26 1681.22 1414.71 1681.51 1415.16 1681.88 1415.5 1682.32 1415.74 1682.76 1415.97 1683.31 1416.14 1683.97 1416.23L1683.53 1418.02 1670.76 1418.02 1671.2 1416.23C1671.75 1416.14 1672.23 1416.01 1672.65 1415.87 1673.07 1415.72 1673.42 1415.48 1673.69 1415.14 1673.96 1414.79 1674.17 1414.33 1674.32 1413.74 1674.47 1413.16 1674.54 1412.4 1674.54 1411.46 1674.54 1411.11 1674.53 1410.7 1674.51 1410.24 1674.49 1409.78 1674.47 1409.3 1674.44 1408.79 1674.41 1408.28 1674.37 1407.76 1674.32 1407.23 1674.27 1406.69 1674.23 1406.17 1674.19 1405.66L1661.06 1405.66C1660.61 1406.32 1660.17 1407.01 1659.73 1407.71 1659.29 1408.41 1658.89 1409.1 1658.53 1409.77 1658.17 1410.45 1657.88 1411.12 1657.67 1411.78 1657.45 1412.44 1657.34 1413.1 1657.34 1413.74 1657.34 1415.17 1658.39 1416 1660.48 1416.23L1660.1 1418.02 1647.29 1418.02 1647.62 1416.23C1648.14 1416.14 1648.62 1415.98 1649.04 1415.78 1649.46 1415.57 1649.9 1415.25 1650.36 1414.81 1650.81 1414.37 1651.31 1413.78 1651.85 1413.03 1652.39 1412.27 1653.04 1411.28 1653.8 1410.05Z" fill-rule="evenodd"/><text fill="#000000" fill-opacity="0" font-family="Arial,Arial_MSFontService,sans-serif" font-size="38.4961" x="1647.29" y="1413.21">𝐴</text><text font-family="Aptos,Aptos_MSFontService,sans-serif" font-weight="400" font-size="83" transform="matrix(1 0 0 1 1311.12 1400)">+</text><path d="M827.5 1532.5 2024.71 1532.5" stroke="#000000" stroke-width="6.875" stroke-miterlimit="8" fill="none" fill-rule="evenodd"/><path d="M789 482C789 471.507 797.507 463 808 463 818.493 463 827 471.507 827 482 827 492.493 818.493 501 808 501 797.507 501 789 492.493 789 482Z" stroke="#000000" stroke-width="8.02083" stroke-miterlimit="8" fill="#FFFFFF" fill-rule="evenodd"/><path d="M789 1531.5C789 1520.73 797.507 1512 808 1512 818.493 1512 827 1520.73 827 1531.5 827 1542.27 818.493 1551 808 1551 797.507 1551 789 1542.27 789 1531.5Z" stroke="#000000" stroke-width="8.02083" stroke-miterlimit="8" fill="#FFFFFF" fill-rule="evenodd"/><path d="M13.75-7.43604e-06 13.7503 598.577-13.7497 598.577-13.75 7.43604e-06ZM41.2503 584.827 0.000360892 667.327-41.2497 584.827Z" fill="#4E95D9" transform="matrix(1 0 0 -1 808 1348.33)"/><path d="M594.821 993.59 611.6 993.59 611.154 995.576C609.965 995.711 609.04 996.062 608.378 996.63 607.716 997.197 607.25 997.987 606.98 999 606.709 1000.01 606.574 1001.37 606.574 1003.07 606.574 1003.48 606.615 1004.69 606.696 1006.72L607.831 1036.39 607.831 1039.63 608.236 1039.63 625.784 1007.98C626.811 1006.11 627.581 1004.51 628.094 1003.17 628.608 1001.84 628.864 1000.66 628.864 999.629 628.864 997.359 627.513 996.008 624.812 995.576L625.257 993.59 641.833 993.59 641.387 995.576C640.658 995.684 639.962 995.961 639.3 996.407 638.638 996.853 637.895 997.596 637.071 998.636 636.247 999.676 634.97 1001.68 633.241 1004.65L607.304 1049.56 601.914 1049.56 599.198 1004.37C599.09 1002.61 598.894 1001.11 598.611 999.852 598.327 998.595 597.881 997.616 597.273 996.913 596.665 996.211 595.699 995.765 594.376 995.576Z" fill-rule="evenodd"/><text fill="#000000" fill-opacity="0" font-family="Arial,Arial_MSFontService,sans-serif" font-size="55.9683" x="594.376" y="1042.56">𝑉</text><path d="M693.183 1027.2C694.062 1027.2 694.911 1027.22 695.731 1027.27 696.552 1027.32 697.392 1027.41 698.251 1027.54 699.11 1027.66 699.984 1027.83 700.873 1028.05 701.762 1028.26 702.714 1028.54 703.729 1028.87L701.972 1036.72 698.896 1036.72C698.798 1035.59 698.622 1034.61 698.368 1033.79 698.114 1032.97 697.753 1032.3 697.284 1031.77 696.815 1031.24 696.215 1030.86 695.482 1030.61 694.75 1030.37 693.856 1030.25 692.802 1030.25 691.376 1030.25 690.019 1030.6 688.729 1031.3 687.44 1032 686.259 1032.96 685.185 1034.17 684.11 1035.38 683.148 1036.8 682.299 1038.43 681.449 1040.07 680.722 1041.79 680.116 1043.62 679.511 1045.45 679.052 1047.33 678.739 1049.26 678.427 1051.19 678.271 1053.08 678.271 1054.91 678.271 1057.86 678.822 1060 679.926 1061.33 681.029 1062.66 682.724 1063.32 685.009 1063.32 686.161 1063.32 687.211 1063.2 688.158 1062.94 689.105 1062.69 689.984 1062.29 690.795 1061.74 691.605 1061.19 692.348 1060.49 693.021 1059.62 693.695 1058.75 694.325 1057.71 694.911 1056.5L698.134 1056.5 696.259 1064.67C695.204 1064.98 694.188 1065.25 693.212 1065.46 692.235 1065.68 691.278 1065.85 690.341 1065.99 689.403 1066.12 688.476 1066.23 687.558 1066.3 686.64 1066.36 685.712 1066.4 684.774 1066.4 682.743 1066.4 680.941 1066.11 679.369 1065.52 677.797 1064.93 676.483 1064.1 675.429 1063.01 674.374 1061.93 673.573 1060.6 673.026 1059.03 672.479 1057.46 672.206 1055.7 672.206 1053.74 672.206 1051.18 672.465 1048.75 672.982 1046.43 673.5 1044.12 674.223 1041.98 675.15 1040.02 676.078 1038.05 677.191 1036.28 678.49 1034.7 679.789 1033.12 681.215 1031.77 682.768 1030.66 684.32 1029.54 685.976 1028.69 687.733 1028.09 689.491 1027.5 691.308 1027.2 693.183 1027.2ZM656.183 1027.2C657.062 1027.2 657.911 1027.22 658.731 1027.27 659.552 1027.32 660.392 1027.41 661.251 1027.54 662.11 1027.66 662.984 1027.83 663.873 1028.05 664.762 1028.26 665.714 1028.54 666.729 1028.87L664.972 1036.72 661.896 1036.72C661.798 1035.59 661.622 1034.61 661.368 1033.79 661.114 1032.97 660.753 1032.3 660.284 1031.77 659.815 1031.24 659.215 1030.86 658.482 1030.61 657.75 1030.37 656.856 1030.25 655.802 1030.25 654.376 1030.25 653.019 1030.6 651.729 1031.3 650.44 1032 649.259 1032.96 648.185 1034.17 647.11 1035.38 646.148 1036.8 645.299 1038.43 644.449 1040.07 643.722 1041.79 643.116 1043.62 642.511 1045.45 642.052 1047.33 641.739 1049.26 641.427 1051.19 641.271 1053.08 641.271 1054.91 641.271 1057.86 641.822 1060 642.926 1061.33 644.029 1062.66 645.724 1063.32 648.009 1063.32 649.161 1063.32 650.211 1063.2 651.158 1062.94 652.105 1062.69 652.984 1062.29 653.795 1061.74 654.605 1061.19 655.348 1060.49 656.021 1059.62 656.695 1058.75 657.325 1057.71 657.911 1056.5L661.134 1056.5 659.259 1064.67C658.204 1064.98 657.188 1065.25 656.212 1065.46 655.235 1065.68 654.278 1065.85 653.341 1065.99 652.403 1066.12 651.476 1066.23 650.558 1066.3 649.64 1066.36 648.712 1066.4 647.774 1066.4 645.743 1066.4 643.941 1066.11 642.369 1065.52 640.797 1064.93 639.483 1064.1 638.429 1063.01 637.374 1061.93 636.573 1060.6 636.026 1059.03 635.479 1057.46 635.206 1055.7 635.206 1053.74 635.206 1051.18 635.465 1048.75 635.982 1046.43 636.5 1044.12 637.223 1041.98 638.15 1040.02 639.078 1038.05 640.191 1036.28 641.49 1034.7 642.789 1033.12 644.215 1031.77 645.768 1030.66 647.32 1029.54 648.976 1028.69 650.733 1028.09 652.491 1027.5 654.308 1027.2 656.183 1027.2Z" fill-rule="evenodd"/><text fill="#000000" fill-opacity="0" font-family="Arial,Arial_MSFontService,sans-serif" font-size="39.1992" x="635.206" y="1061.5">𝐶𝐶</text><path d="M1.51726-3.08453 404.912 195.342 401.878 201.511-1.51726 3.08453ZM405.351 184.065 423.958 208.542 393.213 208.742Z" transform="matrix(1 0 0 -1 1164.5 588.042)"/><rect x="1517" y="1467" width="259" height="130" stroke="#000000" stroke-width="8.02083" stroke-miterlimit="8" fill="#FFFFFF"/><path d="M1075 1531.5C1075 1459.98 1133.2 1402 1205 1402 1276.8 1402 1335 1459.98 1335 1531.5 1335 1603.02 1276.8 1661 1205 1661 1133.2 1661 1075 1603.02 1075 1531.5Z" stroke="#000000" stroke-width="8.02083" stroke-miterlimit="8" fill="#FFFFFF" fill-rule="evenodd"/><text font-family="Calibri,Calibri_MSFontService,sans-serif" font-weight="400" font-size="183" transform="matrix(1 0 0 1 1152.26 1592)">A</text></g></svg>